# xmcd
#
# Track frame offsets: 
#        150
#        11691
#        22505
#        35363
#        46519
#        57354
#        68494
#        80138
#        92610
#        105276
#        118435
#        131520
#        142578
#        153063
#        164909
#        174648
#        184615
#        196914
#        209470
#        220148
#
# Disc length: 3078 seconds
#
# Revision: 0
# Processed by: cddbd v1.5.2PL0 Copyright (c) Steve Scherf et al.
# Submitted via: ExactAudioCopyFreeDBPlugin 1.0
#
DISCID=010c0414
DTITLE=James Brown - The Indispensable 1956-1961 CD2
DYEAR=1900
DGENRE=
TTITLE0=Try Me
TTITLE1=Tell Me What I Did Wrong
TTITLE2=That's When I Lost My Heart
TTITLE3=That Dood It
TTITLE4=There Must Be A Reason
TTITLE5=I've Got To Change
TTITLE6=Got To Cry
TTITLE7=It Was You
TTITLE8=I Want You so Bad
TTITLE9=It Hurts To Tell You
TTITLE10=Don't Let It Happen To Me
TTITLE11=Bewildered
TTITLE12=Godd Good Lovin'
TTITLE13=Wonder When You're Coming Home
TTITLE14=I'll Go Crazy
TTITLE15=This Old Heart
TTITLE16=I Know It's True
TTITLE17=Think
TTITLE18=I'll Never, Never Let You Go
TTITLE19=You've Got The Power
EXTD=
EXTT0=
EXTT1=
EXTT2=
EXTT3=
EXTT4=
EXTT5=
EXTT6=
EXTT7=
EXTT8=
EXTT9=
EXTT10=
EXTT11=
EXTT12=
EXTT13=
EXTT14=
EXTT15=
EXTT16=
EXTT17=
EXTT18=
EXTT19=
PLAYORDER=
